<mxfile host="app.diagrams.net" modified="2024-02-21T11:09:44.185Z" agent="Mozilla/5.0 (Windows NT 10.0; Win64; x64; rv:121.0) Gecko/20100101 Firefox/121.0" etag="pPrJndEmw41GsksBYNNF" version="23.1.5" type="github">
  <diagram name="Page-1" id="iKeAHocLD4EPqSy4bpGk">
    <mxGraphModel dx="880" dy="1570" grid="1" gridSize="10" guides="1" tooltips="1" connect="1" arrows="1" fold="1" page="1" pageScale="1" pageWidth="850" pageHeight="1100" math="0" shadow="0">
      <root>
        <mxCell id="0" />
        <mxCell id="1" parent="0" />
        <mxCell id="oCkC0XWpCFxnduBueV3--1" value="ganti password" style="ellipse;whiteSpace=wrap;html=1;" vertex="1" parent="1">
          <mxGeometry x="220" y="-520" width="120" height="50" as="geometry" />
        </mxCell>
        <mxCell id="oCkC0XWpCFxnduBueV3--2" value="logout" style="ellipse;whiteSpace=wrap;html=1;" vertex="1" parent="1">
          <mxGeometry x="500" y="-520" width="120" height="50" as="geometry" />
        </mxCell>
        <mxCell id="oCkC0XWpCFxnduBueV3--4" value="login" style="ellipse;whiteSpace=wrap;html=1;" vertex="1" parent="1">
          <mxGeometry x="380" y="-360" width="90" height="80" as="geometry" />
        </mxCell>
        <mxCell id="oCkC0XWpCFxnduBueV3--5" value="" style="endArrow=block;dashed=1;endFill=0;endSize=12;html=1;rounded=0;entryX=1;entryY=1;entryDx=0;entryDy=0;exitX=0.289;exitY=0;exitDx=0;exitDy=0;exitPerimeter=0;" edge="1" parent="1" source="oCkC0XWpCFxnduBueV3--4" target="oCkC0XWpCFxnduBueV3--1">
          <mxGeometry width="160" relative="1" as="geometry">
            <mxPoint x="360" y="-400" as="sourcePoint" />
            <mxPoint x="360" y="-430" as="targetPoint" />
          </mxGeometry>
        </mxCell>
        <mxCell id="oCkC0XWpCFxnduBueV3--6" value="" style="endArrow=block;dashed=1;endFill=0;endSize=12;html=1;rounded=0;exitX=0.644;exitY=-0.012;exitDx=0;exitDy=0;exitPerimeter=0;" edge="1" parent="1" source="oCkC0XWpCFxnduBueV3--4" target="oCkC0XWpCFxnduBueV3--2">
          <mxGeometry width="160" relative="1" as="geometry">
            <mxPoint x="310" y="-350" as="sourcePoint" />
            <mxPoint x="470" y="-350" as="targetPoint" />
          </mxGeometry>
        </mxCell>
        <mxCell id="oCkC0XWpCFxnduBueV3--7" value="{include}" style="text;html=1;align=center;verticalAlign=middle;resizable=0;points=[];autosize=1;strokeColor=none;fillColor=none;" vertex="1" parent="1">
          <mxGeometry x="340" y="-480" width="70" height="30" as="geometry" />
        </mxCell>
        <mxCell id="oCkC0XWpCFxnduBueV3--8" value="{include}" style="text;html=1;align=center;verticalAlign=middle;resizable=0;points=[];autosize=1;strokeColor=none;fillColor=none;" vertex="1" parent="1">
          <mxGeometry x="440" y="-480" width="70" height="30" as="geometry" />
        </mxCell>
        <mxCell id="oCkC0XWpCFxnduBueV3--9" value="manajemen&amp;nbsp; data barang" style="ellipse;whiteSpace=wrap;html=1;" vertex="1" parent="1">
          <mxGeometry x="348" y="-250" width="155" height="60" as="geometry" />
        </mxCell>
        <mxCell id="oCkC0XWpCFxnduBueV3--10" value="manajemen data suplier" style="ellipse;whiteSpace=wrap;html=1;" vertex="1" parent="1">
          <mxGeometry x="348" y="-160" width="162" height="60" as="geometry" />
        </mxCell>
        <mxCell id="oCkC0XWpCFxnduBueV3--11" value="pencatatan pembelian" style="ellipse;whiteSpace=wrap;html=1;" vertex="1" parent="1">
          <mxGeometry x="336.25" y="-80" width="185.5" height="60" as="geometry" />
        </mxCell>
        <mxCell id="oCkC0XWpCFxnduBueV3--12" value="cetak transaksi pembelian" style="ellipse;whiteSpace=wrap;html=1;" vertex="1" parent="1">
          <mxGeometry x="333.97" width="184.13" height="70" as="geometry" />
        </mxCell>
        <mxCell id="oCkC0XWpCFxnduBueV3--13" value="membuka transaksi penjualan" style="ellipse;whiteSpace=wrap;html=1;" vertex="1" parent="1">
          <mxGeometry x="332.93" y="100" width="192.13" height="70" as="geometry" />
        </mxCell>
        <mxCell id="oCkC0XWpCFxnduBueV3--15" value="laporan transaksi" style="ellipse;whiteSpace=wrap;html=1;" vertex="1" parent="1">
          <mxGeometry x="339" y="210" width="172.07" height="60" as="geometry" />
        </mxCell>
        <mxCell id="oCkC0XWpCFxnduBueV3--16" value="" style="endArrow=block;dashed=1;endFill=0;endSize=12;html=1;rounded=0;exitX=1;exitY=0.5;exitDx=0;exitDy=0;entryX=0;entryY=0.5;entryDx=0;entryDy=0;" edge="1" parent="1" source="oCkC0XWpCFxnduBueV3--13" target="oCkC0XWpCFxnduBueV3--18">
          <mxGeometry width="160" relative="1" as="geometry">
            <mxPoint x="640" y="280" as="sourcePoint" />
            <mxPoint x="620" y="250" as="targetPoint" />
          </mxGeometry>
        </mxCell>
        <mxCell id="oCkC0XWpCFxnduBueV3--17" value="{include}" style="text;html=1;align=center;verticalAlign=middle;resizable=0;points=[];autosize=1;strokeColor=none;fillColor=none;" vertex="1" parent="1">
          <mxGeometry x="550" y="110" width="70" height="30" as="geometry" />
        </mxCell>
        <mxCell id="oCkC0XWpCFxnduBueV3--18" value="cetak transaksi penjualan" style="ellipse;whiteSpace=wrap;html=1;" vertex="1" parent="1">
          <mxGeometry x="610" y="130" width="160" height="70" as="geometry" />
        </mxCell>
        <mxCell id="oCkC0XWpCFxnduBueV3--19" value="admin" style="shape=umlActor;verticalLabelPosition=bottom;verticalAlign=top;html=1;outlineConnect=0;" vertex="1" parent="1">
          <mxGeometry x="90" y="-220" width="30" height="60" as="geometry" />
        </mxCell>
        <mxCell id="oCkC0XWpCFxnduBueV3--20" value="kasir" style="shape=umlActor;verticalLabelPosition=bottom;verticalAlign=top;html=1;outlineConnect=0;" vertex="1" parent="1">
          <mxGeometry x="700" y="-220" width="30" height="60" as="geometry" />
        </mxCell>
        <mxCell id="oCkC0XWpCFxnduBueV3--33" value="" style="endArrow=classic;html=1;rounded=0;exitX=1;exitY=0.3333333333333333;exitDx=0;exitDy=0;exitPerimeter=0;entryX=0;entryY=0.5;entryDx=0;entryDy=0;" edge="1" parent="1" source="oCkC0XWpCFxnduBueV3--19" target="oCkC0XWpCFxnduBueV3--4">
          <mxGeometry width="50" height="50" relative="1" as="geometry">
            <mxPoint x="330" y="-140" as="sourcePoint" />
            <mxPoint x="380" y="-190" as="targetPoint" />
          </mxGeometry>
        </mxCell>
        <mxCell id="oCkC0XWpCFxnduBueV3--34" value="" style="endArrow=classic;html=1;rounded=0;exitX=1;exitY=0.3333333333333333;exitDx=0;exitDy=0;exitPerimeter=0;entryX=0;entryY=0.5;entryDx=0;entryDy=0;" edge="1" parent="1" source="oCkC0XWpCFxnduBueV3--19" target="oCkC0XWpCFxnduBueV3--9">
          <mxGeometry width="50" height="50" relative="1" as="geometry">
            <mxPoint x="330" y="-140" as="sourcePoint" />
            <mxPoint x="380" y="-190" as="targetPoint" />
          </mxGeometry>
        </mxCell>
        <mxCell id="oCkC0XWpCFxnduBueV3--35" value="" style="endArrow=classic;html=1;rounded=0;entryX=0;entryY=0.5;entryDx=0;entryDy=0;" edge="1" parent="1" target="oCkC0XWpCFxnduBueV3--10">
          <mxGeometry width="50" height="50" relative="1" as="geometry">
            <mxPoint x="120" y="-200" as="sourcePoint" />
            <mxPoint x="380" y="-190" as="targetPoint" />
          </mxGeometry>
        </mxCell>
        <mxCell id="oCkC0XWpCFxnduBueV3--37" value="" style="endArrow=classic;html=1;rounded=0;" edge="1" parent="1">
          <mxGeometry width="50" height="50" relative="1" as="geometry">
            <mxPoint x="120" y="-200" as="sourcePoint" />
            <mxPoint x="330" y="-50" as="targetPoint" />
          </mxGeometry>
        </mxCell>
        <mxCell id="oCkC0XWpCFxnduBueV3--38" value="" style="endArrow=classic;html=1;rounded=0;exitX=1;exitY=0.3333333333333333;exitDx=0;exitDy=0;exitPerimeter=0;entryX=0.011;entryY=0.371;entryDx=0;entryDy=0;entryPerimeter=0;" edge="1" parent="1" source="oCkC0XWpCFxnduBueV3--19" target="oCkC0XWpCFxnduBueV3--12">
          <mxGeometry width="50" height="50" relative="1" as="geometry">
            <mxPoint x="330" y="-140" as="sourcePoint" />
            <mxPoint x="380" y="-190" as="targetPoint" />
          </mxGeometry>
        </mxCell>
        <mxCell id="oCkC0XWpCFxnduBueV3--40" value="" style="endArrow=classic;html=1;rounded=0;entryX=0.016;entryY=0.286;entryDx=0;entryDy=0;entryPerimeter=0;" edge="1" parent="1" target="oCkC0XWpCFxnduBueV3--13">
          <mxGeometry width="50" height="50" relative="1" as="geometry">
            <mxPoint x="120" y="-200" as="sourcePoint" />
            <mxPoint x="380" y="-80" as="targetPoint" />
          </mxGeometry>
        </mxCell>
        <mxCell id="oCkC0XWpCFxnduBueV3--41" value="" style="endArrow=classic;html=1;rounded=0;entryX=0;entryY=0.5;entryDx=0;entryDy=0;" edge="1" parent="1" target="oCkC0XWpCFxnduBueV3--15">
          <mxGeometry width="50" height="50" relative="1" as="geometry">
            <mxPoint x="120" y="-200" as="sourcePoint" />
            <mxPoint x="380" y="-80" as="targetPoint" />
          </mxGeometry>
        </mxCell>
        <mxCell id="oCkC0XWpCFxnduBueV3--42" value="" style="endArrow=classic;html=1;rounded=0;exitX=0;exitY=0.3333333333333333;exitDx=0;exitDy=0;exitPerimeter=0;entryX=1;entryY=0.5;entryDx=0;entryDy=0;" edge="1" parent="1" source="oCkC0XWpCFxnduBueV3--20" target="oCkC0XWpCFxnduBueV3--4">
          <mxGeometry width="50" height="50" relative="1" as="geometry">
            <mxPoint x="330" y="-90" as="sourcePoint" />
            <mxPoint x="380" y="-140" as="targetPoint" />
          </mxGeometry>
        </mxCell>
        <mxCell id="oCkC0XWpCFxnduBueV3--43" value="" style="endArrow=classic;html=1;rounded=0;entryX=1;entryY=0.5;entryDx=0;entryDy=0;" edge="1" parent="1" target="oCkC0XWpCFxnduBueV3--13">
          <mxGeometry width="50" height="50" relative="1" as="geometry">
            <mxPoint x="690" y="-200" as="sourcePoint" />
            <mxPoint x="380" y="-140" as="targetPoint" />
          </mxGeometry>
        </mxCell>
      </root>
    </mxGraphModel>
  </diagram>
</mxfile>
